<svg width="171" height="22" viewBox="0 0 171 22" fill="none" xmlns="http://www.w3.org/2000/svg">
<path d="M0.630859 2.10547V1.49023H8.21875V2.10547L6.35938 2.24219L9.99609 15.9004H10.0508L14.2754 1.20312H14.8906L19.8125 15.8457H19.8672L23.7773 2.24219L21.9316 2.10547V1.49023H26.2656V2.10547L24.6113 2.24219L19.0605 21.2734H18.4453L13.4141 7.01367H13.3867L9.20312 21.2734H8.58789L2.69531 2.24219L0.630859 2.10547ZM26.7715 8.36719V7.80664L29.6289 7.50586L31.5566 7L31.8027 7.39648V20.3027L33.2109 20.4395V21H27.0449V20.4395L28.4531 20.3027V8.36719H26.7715ZM28.2617 2.14648C28.2617 1.89128 28.3073 1.6543 28.3984 1.43555C28.4987 1.2168 28.6309 1.02539 28.7949 0.861328C28.959 0.697266 29.1504 0.569661 29.3691 0.478516C29.5879 0.38737 29.8203 0.341797 30.0664 0.341797C30.3125 0.341797 30.5449 0.391927 30.7637 0.492188C30.9824 0.583333 31.1738 0.710938 31.3379 0.875C31.5111 1.03906 31.6432 1.23047 31.7344 1.44922C31.8346 1.66797 31.8848 1.90039 31.8848 2.14648C31.8848 2.39258 31.8346 2.625 31.7344 2.84375C31.6432 3.0625 31.5156 3.25846 31.3516 3.43164C31.1875 3.5957 30.9961 3.72786 30.7773 3.82812C30.5586 3.91927 30.3216 3.96484 30.0664 3.96484C29.8112 3.96484 29.5742 3.91927 29.3555 3.82812C29.1367 3.72786 28.9453 3.5957 28.7812 3.43164C28.6172 3.26758 28.4896 3.07617 28.3984 2.85742C28.3073 2.63867 28.2617 2.40169 28.2617 2.14648ZM34.7695 7.80664L37.627 7.50586L39.5547 7L39.8008 7.39648L39.7461 9.24219H39.8008C40.8854 7.65625 42.2891 6.86328 44.0117 6.86328C44.3398 6.86328 44.6543 6.89062 44.9551 6.94531C45.2559 7 45.5885 7.12305 45.9531 7.31445C46.3177 7.50586 46.6322 7.75651 46.8965 8.06641C47.1608 8.3763 47.3841 8.81836 47.5664 9.39258C47.7487 9.9668 47.8398 10.6367 47.8398 11.4023V20.3027L49.2344 20.4395V21H43.082V20.4395L44.4766 20.3027V11.0059C44.4766 9.06445 43.8522 8.09375 42.6035 8.09375C41.7832 8.09375 41.1087 8.46745 40.5801 9.21484C40.0605 9.96224 39.8008 10.9421 39.8008 12.1543V20.3027L41.209 20.4395V21H35.043V20.4395L36.4512 20.3027V8.33984L34.7969 8.36719L34.7695 7.80664ZM49.9863 7.86133V7.27344H52.3105V4.25195L53.4863 4.12891L55.4141 3.62305L55.6738 4.01953V7.27344H58.668V7.86133L55.6738 7.98438V17.6094C55.6738 18.1654 55.7376 18.6302 55.8652 19.0039C56.002 19.3685 56.1751 19.6191 56.3848 19.7559C56.6035 19.8926 56.7767 19.9792 56.9043 20.0156C57.041 20.0521 57.1823 20.0703 57.3281 20.0703C57.6107 20.0703 57.8796 20.0111 58.1348 19.8926C58.3991 19.765 58.6361 19.5827 58.8457 19.3457C59.0645 19.1087 59.2422 18.8945 59.3789 18.7031C59.5156 18.5026 59.6706 18.2611 59.8438 17.9785L60.4316 18.334C59.9486 19.1361 59.5293 19.7194 59.1738 20.084C58.3079 20.9681 57.3099 21.4102 56.1797 21.4102C55.7513 21.4102 55.3685 21.3783 55.0312 21.3145C54.7031 21.2598 54.3613 21.1367 54.0059 20.9453C53.6504 20.7539 53.3542 20.4987 53.1172 20.1797C52.8802 19.8516 52.6842 19.4049 52.5293 18.8398C52.3835 18.2656 52.3105 17.5957 52.3105 16.8301V7.98438L49.9863 7.86133ZM61.334 14.1367C61.334 13.4258 61.4023 12.7331 61.5391 12.0586C61.6758 11.375 61.8991 10.7188 62.209 10.0898C62.5189 9.46094 62.8971 8.90951 63.3438 8.43555C63.7904 7.96159 64.3418 7.58333 64.998 7.30078C65.6634 7.00911 66.3971 6.86328 67.1992 6.86328C67.9557 6.86328 68.6348 6.97266 69.2363 7.19141C69.8379 7.40104 70.3392 7.69727 70.7402 8.08008C71.1413 8.46289 71.474 8.93229 71.7383 9.48828C72.0026 10.0352 72.1895 10.6322 72.2988 11.2793C72.4173 11.9173 72.4766 12.6191 72.4766 13.3848L72.1074 13.7266H64.834V14.5605C64.834 18.5345 65.9642 20.5215 68.2246 20.5215C69.8288 20.5215 71.1094 19.7194 72.0664 18.1152L72.5996 18.4434C71.4238 20.4212 69.7513 21.4102 67.582 21.4102C65.4857 21.4102 63.918 20.763 62.8789 19.4688C61.849 18.1745 61.334 16.3971 61.334 14.1367ZM64.834 13.1113L69.25 12.9336C69.2773 12.4688 69.291 12.0221 69.291 11.5938C69.291 10.2721 69.1315 9.25586 68.8125 8.54492C68.5026 7.83398 67.9831 7.47852 67.2539 7.47852C66.8164 7.47852 66.4382 7.62435 66.1191 7.91602C65.8092 8.19857 65.5677 8.60872 65.3945 9.14648C65.2214 9.68424 65.0892 10.2721 64.998 10.9102C64.916 11.5391 64.8613 12.2728 64.834 13.1113ZM74.4316 8.36719V7.80664L77.2891 7.50586L79.2168 7L79.4082 7.39648V9.74805H79.4629C79.6452 9.38346 79.8685 9.02799 80.1328 8.68164C80.3971 8.33529 80.6842 8.02995 80.9941 7.76562C81.3132 7.49219 81.6504 7.27344 82.0059 7.10938C82.3613 6.94531 82.7214 6.86328 83.0859 6.86328C83.7969 6.86328 84.3438 7.05469 84.7266 7.4375C85.1185 7.8112 85.3145 8.3125 85.3145 8.94141C85.3145 9.20573 85.2734 9.45182 85.1914 9.67969C85.1094 9.89844 84.9909 10.0898 84.8359 10.2539C84.6901 10.418 84.5078 10.5501 84.2891 10.6504C84.0794 10.7415 83.847 10.7871 83.5918 10.7871C83.3184 10.7871 83.0723 10.7415 82.8535 10.6504C82.6348 10.5592 82.4479 10.4362 82.293 10.2812C82.1471 10.1263 82.0332 9.94857 81.9512 9.74805C81.8691 9.53841 81.8281 9.3151 81.8281 9.07812C81.8281 8.59505 81.9284 8.23958 82.1289 8.01172V7.92969C81.8008 8.0026 81.4772 8.17578 81.1582 8.44922C80.8483 8.72266 80.5658 9.09635 80.3105 9.57031C80.0553 10.0352 79.8503 10.6003 79.6953 11.2656C79.5404 11.9219 79.4629 12.6647 79.4629 13.4941V20.3027L80.8711 20.4395V21H74.7051V20.4395L76.1133 20.3027V8.36719H74.4316Z" fill="#005EFF"/>
<path d="M89.9995 3.024C91.2875 3.024 92.7062 2.996 94.2555 2.94C95.8049 2.884 97.3169 2.856 98.7915 2.856C98.8849 3.54667 99.0062 4.18133 99.1555 4.76C99.3049 5.33867 99.4449 5.936 99.5755 6.552C99.4822 6.64533 99.3235 6.692 99.0995 6.692C98.8569 6.692 98.7262 6.62667 98.7075 6.496C98.4089 5.39467 97.9889 4.69467 97.4475 4.396C96.9062 4.09733 96.2715 3.948 95.5435 3.948H93.1915C93.0795 3.948 92.8742 3.95733 92.5755 3.976C92.2769 3.976 91.9969 3.99467 91.7355 4.032C91.4742 4.06933 91.3249 4.13467 91.2875 4.228C91.2315 4.41467 91.1942 4.65733 91.1755 4.956C91.1755 5.25467 91.1755 5.56267 91.1755 5.88C91.1755 6.01067 91.1755 6.11333 91.1755 6.188V11.284C91.1755 11.3587 91.2969 11.4053 91.5395 11.424C91.7822 11.4427 92.0529 11.452 92.3515 11.452H93.7795C94.4329 11.452 94.9369 11.4333 95.2915 11.396C95.6649 11.3587 95.9355 11.2747 96.1035 11.144C96.2715 11.0133 96.4022 10.8173 96.4955 10.556C96.5889 10.2947 96.6915 9.94 96.8035 9.492C96.8222 9.36133 96.9529 9.296 97.1955 9.296C97.4195 9.296 97.5782 9.34267 97.6715 9.436V14.588C97.5969 14.6627 97.4475 14.7 97.2235 14.7C96.9995 14.7 96.8595 14.6347 96.8035 14.504C96.6729 13.9813 96.5609 13.608 96.4675 13.384C96.3929 13.1413 96.3182 12.9827 96.2435 12.908C96.1875 12.8147 96.1129 12.74 96.0195 12.684C95.9262 12.6093 95.7115 12.5627 95.3755 12.544C95.0395 12.5067 94.6662 12.488 94.2555 12.488C93.8635 12.4693 93.4902 12.46 93.1355 12.46C92.8929 12.46 92.6129 12.4693 92.2955 12.488C91.9969 12.488 91.7355 12.5067 91.5115 12.544C91.2875 12.5627 91.1755 12.6187 91.1755 12.712V17.836C91.1755 17.892 91.1755 17.948 91.1755 18.004C91.1755 18.06 91.1755 18.116 91.1755 18.172C91.1755 18.5267 91.1755 18.8533 91.1755 19.152C91.1942 19.432 91.2315 19.6653 91.2875 19.852C91.3249 19.9453 91.4929 20.0293 91.7915 20.104C92.1089 20.1787 92.4355 20.2347 92.7715 20.272C93.1262 20.2907 93.3595 20.3 93.4715 20.3C93.5275 20.3747 93.5555 20.5053 93.5555 20.692C93.5742 20.8787 93.5462 21.0093 93.4715 21.084C92.9115 21.0467 92.3235 21.0187 91.7075 21C91.1102 20.9627 90.5409 20.944 89.9995 20.944C89.3649 20.944 88.7955 20.9627 88.2915 21C87.8062 21.056 87.2929 21.084 86.7515 21.084C86.6769 21.0093 86.6395 20.8787 86.6395 20.692C86.6582 20.5053 86.6955 20.3747 86.7515 20.3C86.8635 20.3 87.0689 20.2907 87.3675 20.272C87.6662 20.2347 87.9462 20.1787 88.2075 20.104C88.4875 20.0293 88.6369 19.9453 88.6555 19.852C88.7302 19.628 88.7675 19.3387 88.7675 18.984C88.7862 18.6293 88.7955 18.2467 88.7955 17.836V6.16C88.7955 5.74933 88.7862 5.36667 88.7675 5.012C88.7675 4.63867 88.7302 4.34 88.6555 4.116C88.6369 4.004 88.4875 3.92 88.2075 3.864C87.9462 3.808 87.6662 3.77067 87.3675 3.752C87.0689 3.71467 86.8635 3.696 86.7515 3.696C86.6955 3.62133 86.6582 3.49067 86.6395 3.304C86.6395 3.11733 86.6769 2.98667 86.7515 2.912C87.3115 2.93067 87.8622 2.95867 88.4035 2.996C88.9449 3.01467 89.4769 3.024 89.9995 3.024ZM105.881 9.072C106.403 9.072 106.889 9.24 107.337 9.576C107.803 9.912 108.177 10.36 108.457 10.92C108.737 11.48 108.877 12.1147 108.877 12.824V18.452C108.877 18.8067 108.942 19.1147 109.073 19.376C109.203 19.6187 109.418 19.74 109.717 19.74C109.978 19.74 110.183 19.684 110.333 19.572C110.482 19.46 110.575 19.3947 110.613 19.376C110.65 19.376 110.678 19.404 110.697 19.46C110.715 19.516 110.725 19.5627 110.725 19.6C110.725 19.8053 110.678 19.9827 110.585 20.132C110.473 20.2253 110.286 20.356 110.025 20.524C109.782 20.692 109.521 20.8413 109.241 20.972C108.979 21.1027 108.746 21.168 108.541 21.168C108.149 21.168 107.794 20.972 107.477 20.58C107.178 20.188 106.982 19.7867 106.889 19.376C106.814 19.4507 106.637 19.5907 106.357 19.796C106.095 20.0013 105.787 20.216 105.433 20.44C105.078 20.6453 104.723 20.832 104.369 21C104.033 21.1493 103.743 21.224 103.501 21.224C102.605 21.224 101.849 20.9253 101.233 20.328C100.617 19.712 100.309 18.9653 100.309 18.088C100.309 17.528 100.458 17.052 100.757 16.66C101.074 16.2493 101.382 15.988 101.681 15.876C102.203 15.6893 102.782 15.4933 103.417 15.288C104.07 15.064 104.677 14.8493 105.237 14.644C105.797 14.4387 106.207 14.28 106.469 14.168C106.618 14.112 106.711 14.0467 106.749 13.972C106.786 13.8787 106.805 13.7107 106.805 13.468V12.74C106.805 12.3293 106.702 11.928 106.497 11.536C106.291 11.1253 106.011 10.7893 105.657 10.528C105.302 10.248 104.901 10.108 104.453 10.108C103.986 10.108 103.641 10.2573 103.417 10.556C103.193 10.8547 103.034 11.2747 102.941 11.816C102.773 12.6933 102.343 13.132 101.653 13.132C101.354 13.132 101.121 13.0107 100.953 12.768C100.803 12.5253 100.729 12.264 100.729 11.984C100.729 11.928 100.747 11.8253 100.785 11.676C100.822 11.508 100.869 11.3867 100.925 11.312C101.205 11.0507 101.606 10.7427 102.129 10.388C102.651 10.0333 103.239 9.72533 103.893 9.464C104.565 9.20267 105.227 9.072 105.881 9.072ZM104.425 19.74C104.742 19.74 105.087 19.6653 105.461 19.516C105.834 19.3667 106.151 19.208 106.413 19.04C106.674 18.8533 106.805 18.7133 106.805 18.62V14.896C106.45 15.008 106.002 15.148 105.461 15.316C104.919 15.484 104.518 15.6147 104.257 15.708C103.771 15.8947 103.37 16.1653 103.053 16.52C102.735 16.8747 102.577 17.3133 102.577 17.836C102.577 18.34 102.754 18.788 103.109 19.18C103.463 19.5533 103.902 19.74 104.425 19.74ZM116.379 9.044C116.92 9.044 117.368 9.09067 117.723 9.184C118.096 9.25867 118.581 9.33333 119.179 9.408C119.272 9.81867 119.347 10.304 119.403 10.864C119.459 11.4053 119.496 11.9187 119.515 12.404C119.515 12.4973 119.421 12.544 119.235 12.544C119.16 12.544 119.076 12.5347 118.983 12.516C118.908 12.4973 118.833 12.46 118.759 12.404C118.665 12.068 118.507 11.704 118.283 11.312C118.077 10.92 117.816 10.5933 117.499 10.332C117.2 10.052 116.855 9.912 116.463 9.912C115.809 9.912 115.324 10.08 115.007 10.416C114.689 10.7333 114.531 11.1347 114.531 11.62C114.531 12.0867 114.643 12.4693 114.867 12.768C115.091 13.048 115.38 13.3 115.735 13.524C116.108 13.7293 116.5 13.9533 116.911 14.196C117.321 14.4387 117.769 14.7093 118.255 15.008C118.74 15.3067 119.16 15.6613 119.515 16.072C119.869 16.464 120.047 16.9493 120.047 17.528C120.047 18.256 119.851 18.9093 119.459 19.488C119.067 20.048 118.553 20.496 117.919 20.832C117.284 21.1493 116.593 21.308 115.847 21.308C115.212 21.308 114.671 21.2427 114.223 21.112C113.775 21 113.252 20.888 112.655 20.776C112.58 20.5707 112.505 20.2907 112.431 19.936C112.356 19.5813 112.291 19.2173 112.235 18.844C112.197 18.4707 112.179 18.172 112.179 17.948C112.328 17.836 112.496 17.78 112.683 17.78C112.776 17.78 112.851 17.7987 112.907 17.836C113.019 18.2093 113.215 18.6013 113.495 19.012C113.775 19.404 114.12 19.74 114.531 20.02C114.941 20.2813 115.389 20.412 115.875 20.412C116.435 20.412 116.901 20.244 117.275 19.908C117.648 19.572 117.835 19.0867 117.835 18.452C117.835 17.892 117.667 17.444 117.331 17.108C116.995 16.7533 116.575 16.4453 116.071 16.184C115.567 15.904 115.044 15.6147 114.503 15.316C113.961 14.9987 113.476 14.616 113.047 14.168C112.636 13.7013 112.431 13.104 112.431 12.376C112.431 11.704 112.617 11.116 112.991 10.612C113.383 10.108 113.877 9.72533 114.475 9.464C115.072 9.184 115.707 9.044 116.379 9.044ZM129.548 9.016C130.538 9.016 131.284 9.22133 131.788 9.632C132.292 10.0427 132.628 10.6773 132.796 11.536C132.983 12.3947 133.076 13.4867 133.076 14.812V17.836C133.076 18.2467 133.076 18.6293 133.076 18.984C133.095 19.3387 133.142 19.628 133.216 19.852C133.254 19.9453 133.384 20.0293 133.608 20.104C133.851 20.1787 134.103 20.2347 134.364 20.272C134.644 20.2907 134.84 20.3 134.952 20.3C135.008 20.3747 135.036 20.5053 135.036 20.692C135.055 20.8787 135.027 21.0093 134.952 21.084C134.392 21.0467 133.898 21.0187 133.468 21C133.039 20.9627 132.554 20.944 132.012 20.944C131.49 20.944 131.014 20.9627 130.584 21C130.174 21.0187 129.688 21.0467 129.128 21.084C129.054 21.0093 129.016 20.8787 129.016 20.692C129.035 20.5053 129.072 20.3747 129.128 20.3C129.24 20.3 129.427 20.2907 129.688 20.272C129.95 20.2347 130.202 20.1787 130.444 20.104C130.687 20.0293 130.818 19.9453 130.836 19.852C130.911 19.628 130.948 19.3387 130.948 18.984C130.967 18.6293 130.976 18.2467 130.976 17.836V15.092C130.976 13.9533 130.902 13.0667 130.752 12.432C130.603 11.7787 130.332 11.312 129.94 11.032C129.548 10.752 128.998 10.612 128.288 10.612C127.952 10.612 127.579 10.724 127.168 10.948C126.776 11.1533 126.431 11.3773 126.132 11.62C125.834 11.8627 125.684 12.0307 125.684 12.124V17.836C125.684 18.2467 125.684 18.6293 125.684 18.984C125.703 19.3387 125.75 19.628 125.824 19.852C125.862 19.9453 125.992 20.0293 126.216 20.104C126.459 20.1787 126.711 20.2347 126.972 20.272C127.252 20.2907 127.448 20.3 127.56 20.3C127.616 20.3747 127.644 20.5053 127.644 20.692C127.663 20.8787 127.635 21.0093 127.56 21.084C127 21.0467 126.506 21.0187 126.076 21C125.647 20.9627 125.162 20.944 124.62 20.944C124.098 20.944 123.622 20.9627 123.192 21C122.782 21.0187 122.296 21.0467 121.736 21.084C121.662 21.0093 121.624 20.8787 121.624 20.692C121.643 20.5053 121.68 20.3747 121.736 20.3C121.848 20.3 122.035 20.2907 122.296 20.272C122.558 20.2347 122.81 20.1787 123.052 20.104C123.295 20.0293 123.426 19.9453 123.444 19.852C123.519 19.628 123.556 19.3387 123.556 18.984C123.575 18.6293 123.584 18.2467 123.584 17.836V5.74C123.584 5.55333 123.575 5.31067 123.556 5.012C123.556 4.71333 123.519 4.48 123.444 4.312C123.37 4.10667 123.164 3.976 122.828 3.92C122.511 3.864 122.166 3.836 121.792 3.836C121.774 3.836 121.755 3.724 121.736 3.5C121.736 3.25733 121.764 3.12667 121.82 3.108C122.511 3.03333 123.183 2.90267 123.836 2.716C124.49 2.51067 125.106 2.27733 125.684 2.016C125.759 2.016 125.824 2.072 125.88 2.184C125.955 2.27733 125.992 2.37067 125.992 2.464C125.992 2.464 125.936 2.66933 125.824 3.08C125.731 3.49067 125.684 4.07867 125.684 4.844V11.032C125.684 11.0693 125.712 11.088 125.768 11.088C125.787 11.088 125.815 11.0693 125.852 11.032C126.039 10.8267 126.338 10.5653 126.748 10.248C127.178 9.93067 127.644 9.65067 128.148 9.408C128.652 9.14667 129.119 9.016 129.548 9.016ZM137.554 4.788C137.554 4.41467 137.685 4.09733 137.946 3.836C138.226 3.556 138.553 3.416 138.926 3.416C139.3 3.416 139.617 3.556 139.878 3.836C140.158 4.09733 140.298 4.41467 140.298 4.788C140.298 5.16133 140.158 5.488 139.878 5.768C139.617 6.02933 139.3 6.16 138.926 6.16C138.553 6.16 138.226 6.02933 137.946 5.768C137.685 5.488 137.554 5.16133 137.554 4.788ZM140.186 17.836C140.186 18.2467 140.186 18.6293 140.186 18.984C140.205 19.3387 140.252 19.628 140.326 19.852C140.364 19.9453 140.494 20.0293 140.718 20.104C140.961 20.1787 141.213 20.2347 141.474 20.272C141.736 20.2907 141.922 20.3 142.034 20.3C142.09 20.3747 142.118 20.5053 142.118 20.692C142.137 20.8787 142.109 21.0093 142.034 21.084C141.474 21.0467 140.98 21.0187 140.55 21C140.14 20.9627 139.664 20.944 139.122 20.944C138.6 20.944 138.124 20.9627 137.694 21C137.265 21.0187 136.77 21.0467 136.21 21.084C136.136 21.0093 136.098 20.8787 136.098 20.692C136.117 20.5053 136.154 20.3747 136.21 20.3C136.322 20.3 136.509 20.2907 136.77 20.272C137.05 20.2347 137.312 20.1787 137.554 20.104C137.797 20.0293 137.928 19.9453 137.946 19.852C138.021 19.628 138.058 19.3387 138.058 18.984C138.077 18.6293 138.086 18.2467 138.086 17.836V12.74C138.086 12.5533 138.077 12.3107 138.058 12.012C138.058 11.7133 138.021 11.48 137.946 11.312C137.89 11.144 137.732 11.032 137.47 10.976C137.209 10.9013 136.948 10.864 136.686 10.864C136.425 10.8453 136.257 10.836 136.182 10.836C136.164 10.7987 136.145 10.6867 136.126 10.5C136.108 10.3133 136.126 10.1827 136.182 10.108C136.892 10.0147 137.582 9.87467 138.254 9.688C138.926 9.50133 139.533 9.25867 140.074 8.96C140.149 8.96 140.214 9.016 140.27 9.128C140.345 9.24 140.382 9.33333 140.382 9.408C140.382 9.464 140.364 9.62267 140.326 9.884C140.289 10.1453 140.252 10.4067 140.214 10.668C140.196 10.9293 140.186 11.1067 140.186 11.2V17.836ZM149.53 8.988C150.743 8.988 151.779 9.24933 152.638 9.772C153.515 10.2947 154.187 11.004 154.654 11.9C155.139 12.796 155.382 13.8133 155.382 14.952C155.382 16.128 155.13 17.192 154.626 18.144C154.122 19.0773 153.431 19.824 152.554 20.384C151.677 20.9253 150.687 21.196 149.586 21.196C148.391 21.196 147.346 20.9347 146.45 20.412C145.573 19.8707 144.891 19.152 144.406 18.256C143.939 17.3413 143.706 16.3147 143.706 15.176C143.706 14 143.958 12.9453 144.462 12.012C144.985 11.0787 145.685 10.3413 146.562 9.8C147.439 9.25867 148.429 8.988 149.53 8.988ZM149.222 9.912C148.457 9.912 147.841 10.1453 147.374 10.612C146.907 11.06 146.571 11.648 146.366 12.376C146.161 13.0853 146.058 13.832 146.058 14.616C146.058 15.4933 146.198 16.3707 146.478 17.248C146.777 18.1253 147.206 18.8533 147.766 19.432C148.345 20.0107 149.045 20.3 149.866 20.3C150.65 20.3 151.266 20.076 151.714 19.628C152.181 19.1613 152.517 18.564 152.722 17.836C152.927 17.108 153.03 16.3613 153.03 15.596C153.03 14.7 152.881 13.8227 152.582 12.964C152.283 12.0867 151.854 11.3587 151.294 10.78C150.734 10.2013 150.043 9.912 149.222 9.912ZM165.324 9.016C166.313 9.016 167.06 9.22133 167.564 9.632C168.068 10.0427 168.404 10.6773 168.572 11.536C168.759 12.3947 168.852 13.4867 168.852 14.812V17.836C168.852 18.2467 168.852 18.6293 168.852 18.984C168.871 19.3387 168.917 19.628 168.992 19.852C169.029 19.9453 169.16 20.0293 169.384 20.104C169.627 20.1787 169.879 20.2347 170.14 20.272C170.401 20.2907 170.588 20.3 170.7 20.3C170.756 20.3747 170.784 20.5053 170.784 20.692C170.803 20.8787 170.775 21.0093 170.7 21.084C170.14 21.0467 169.645 21.0187 169.216 21C168.805 20.9627 168.329 20.944 167.788 20.944C167.265 20.944 166.789 20.9627 166.36 21C165.931 21.0187 165.436 21.0467 164.876 21.084C164.801 21.0093 164.764 20.8787 164.764 20.692C164.783 20.5053 164.82 20.3747 164.876 20.3C164.988 20.3 165.175 20.2907 165.436 20.272C165.716 20.2347 165.977 20.1787 166.22 20.104C166.463 20.0293 166.593 19.9453 166.612 19.852C166.687 19.628 166.724 19.3387 166.724 18.984C166.743 18.6293 166.752 18.2467 166.752 17.836V15.092C166.752 13.9533 166.677 13.0667 166.528 12.432C166.379 11.7787 166.108 11.312 165.716 11.032C165.324 10.752 164.773 10.612 164.064 10.612C163.728 10.612 163.355 10.724 162.944 10.948C162.552 11.1533 162.207 11.3773 161.908 11.62C161.609 11.8627 161.46 12.0307 161.46 12.124V17.836C161.46 18.2467 161.46 18.6293 161.46 18.984C161.479 19.3387 161.525 19.628 161.6 19.852C161.637 19.9453 161.768 20.0293 161.992 20.104C162.235 20.1787 162.487 20.2347 162.748 20.272C163.009 20.2907 163.196 20.3 163.308 20.3C163.364 20.3747 163.392 20.5053 163.392 20.692C163.411 20.8787 163.383 21.0093 163.308 21.084C162.748 21.0467 162.253 21.0187 161.824 21C161.413 20.9627 160.937 20.944 160.396 20.944C159.873 20.944 159.397 20.9627 158.968 21C158.539 21.0187 158.044 21.0467 157.484 21.084C157.409 21.0093 157.372 20.8787 157.372 20.692C157.391 20.5053 157.428 20.3747 157.484 20.3C157.596 20.3 157.783 20.2907 158.044 20.272C158.324 20.2347 158.585 20.1787 158.828 20.104C159.071 20.0293 159.201 19.9453 159.22 19.852C159.295 19.628 159.332 19.3387 159.332 18.984C159.351 18.6293 159.36 18.2467 159.36 17.836V12.852C159.36 12.6653 159.351 12.404 159.332 12.068C159.332 11.732 159.295 11.48 159.22 11.312C159.164 11.144 159.005 11.032 158.744 10.976C158.483 10.9013 158.221 10.864 157.96 10.864C157.699 10.8453 157.531 10.836 157.456 10.836C157.437 10.7987 157.419 10.6867 157.4 10.5C157.381 10.3133 157.4 10.1827 157.456 10.108C158.165 10.0147 158.856 9.87467 159.528 9.688C160.2 9.50133 160.807 9.25867 161.348 8.96C161.423 8.96 161.488 9.016 161.544 9.128C161.619 9.24 161.656 9.33333 161.656 9.408C161.656 9.464 161.637 9.61333 161.6 9.856C161.581 10.08 161.553 10.304 161.516 10.528C161.497 10.752 161.488 10.9013 161.488 10.976C161.488 11.0507 161.507 11.088 161.544 11.088C161.563 11.088 161.591 11.0693 161.628 11.032C161.815 10.8267 162.113 10.5653 162.524 10.248C162.953 9.93067 163.42 9.65067 163.924 9.408C164.428 9.14667 164.895 9.016 165.324 9.016Z" fill="black"/>
</svg>
